<svg width="24" height="22" viewBox="0 0 24 22" fill="none" xmlns="http://www.w3.org/2000/svg">
<path d="M9.3936 2.43478L6.9936 4.86957H2.4V19.4783H21.6V4.86957H17.0064L14.6064 2.43478H9.3936ZM8.4 0H15.6L18 2.43478H22.8C23.1183 2.43478 23.4235 2.56304 23.6485 2.79135C23.8736 3.01965 24 3.3293 24 3.65217V20.6957C24 21.0185 23.8736 21.3282 23.6485 21.5565C23.4235 21.7848 23.1183 21.913 22.8 21.913H1.2C0.88174 21.913 0.576515 21.7848 0.351472 21.5565C0.126428 21.3282 0 21.0185 0 20.6957V3.65217C0 3.3293 0.126428 3.01965 0.351472 2.79135C0.576515 2.56304 0.88174 2.43478 1.2 2.43478H6L8.4 0ZM12 18.2609C10.2496 18.2609 8.57084 17.5554 7.3331 16.2998C6.09536 15.0441 5.4 13.341 5.4 11.5652C5.4 9.78942 6.09536 8.08635 7.3331 6.83068C8.57084 5.575 10.2496 4.86957 12 4.86957C13.7504 4.86957 15.4292 5.575 16.6669 6.83068C17.9046 8.08635 18.6 9.78942 18.6 11.5652C18.6 13.341 17.9046 15.0441 16.6669 16.2998C15.4292 17.5554 13.7504 18.2609 12 18.2609ZM12 15.8261C13.1139 15.8261 14.1822 15.3772 14.9698 14.5781C15.7575 13.779 16.2 12.6953 16.2 11.5652C16.2 10.4352 15.7575 9.3514 14.9698 8.55233C14.1822 7.75326 13.1139 7.30435 12 7.30435C10.8861 7.30435 9.81781 7.75326 9.03015 8.55233C8.2425 9.3514 7.8 10.4352 7.8 11.5652C7.8 12.6953 8.2425 13.779 9.03015 14.5781C9.81781 15.3772 10.8861 15.8261 12 15.8261Z" fill="#EBEFF2"/>
</svg>
