<svg width="92" height="75" viewBox="0 0 92 75" fill="none" xmlns="http://www.w3.org/2000/svg">
<path d="M72.6 1L1 34.4L19.3 73.5C19.7 73.4 20 73.3 20.2 73.2C33.7 66.9 47.4 60.6 60.9 54.3C61.6 54.1 62 53.4 61.8 52.7C61.8 52.6 61.8 52.6 61.7 52.5C60.2 45.7 64.5 38.9 71.3 37.4C72.2 37.2 73.1 37.1 74 37.1C77.9 37.1 81.6 38.9 84 41.9C84.3 42.3 84.8 42.6 85.3 42.7H85.5C87.3 42 89.1 41.1 90.9 40.2L72.6 1ZM70 5.1C71.7 5.1 73.2 6.5 73.2 8.3C73.2 10.1 71.8 11.5 70 11.5C68.3 11.5 66.8 10.1 66.8 8.3C66.8 6.6 68.2 5.1 70 5.1ZM4.6 37.3C4.6 35.6 6 34.1 7.8 34.1C9.5 34.1 11 35.5 11 37.3C11 39.1 9.6 40.5 7.8 40.5C6.1 40.5 4.6 39.1 4.6 37.3ZM21.9 70.5C20.2 70.5 18.7 69.1 18.7 67.3C18.7 65.6 20.1 64.1 21.9 64.1C23.6 64.1 25.1 65.5 25.1 67.3C25.1 69.1 23.7 70.5 21.9 70.5ZM85.5 40.5C81.6 35.6 75 33.8 69 35.9C62.2 38.4 58.2 45.5 59.7 52.6C49.6 57.3 39.2 62.1 29.3 66.7L27 67.8C27 67.7 27 67.7 27 67.6C27 66.2 26.5 64.9 25.5 63.8C24.5 62.8 23.2 62.2 21.9 62.2H21.8C20 62.2 18.3 63.2 17.4 64.7L8.9 46.6L7 42.5C7.3 42.5 7.5 42.6 7.8 42.6C10.6 42.6 12.8 40.4 12.9 37.6C12.9 36.2 12.4 34.9 11.4 33.8C10.9 33.2 10.2 32.8 9.5 32.5L55.9 10.9L65.1 6.7C64.2 9.4 65.7 12.3 68.4 13.2C68.9 13.4 69.4 13.5 70 13.5C72.1 13.5 73.9 12.2 74.7 10.3L82.7 27.5L88.1 39.2C87.3 39.6 86.4 40.1 85.5 40.5ZM44.9 24.2H44.6C37.4 24.2 31.6 30 31.6 37.2C31.6 44.4 37.4 50.2 44.6 50.2L44.8 50.3C51.8 50.3 57.6 44.7 57.8 37.7C57.9 34.2 56.6 30.7 54.1 28.2C51.8 25.7 48.5 24.2 44.9 24.2ZM44.8 48.3C38.6 48.3 33.7 43.4 33.7 37.3C33.7 31.2 38.6 26.3 44.7 26.3H44.9C51 26.3 55.9 31.3 55.9 37.4C56 43.5 51 48.3 44.8 48.3ZM74.5 41.5C69.7 41.3 65.8 45 65.6 49.7C65.6 52 66.5 54.3 68.2 55.9C69.7 57.5 71.9 58.4 74.1 58.4C78.9 58.3 82.6 54.5 82.7 49.8C82.7 45.3 79.1 41.7 74.5 41.5ZM74.2 56.4C72.5 56.4 70.8 55.7 69.6 54.5C68.3 53.2 67.6 51.5 67.6 49.7C67.6 46.1 70.5 43.2 74.1 43.2C77.7 43.2 80.7 46.2 80.7 49.8C80.8 53.4 77.9 56.3 74.2 56.4ZM65.1 58.4C60.8 58.4 57.3 61.9 57.3 66.2C57.3 70.5 60.8 74 65.1 74C69.5 74 72.9 70.5 72.9 66.2C72.9 61.9 69.4 58.4 65.1 58.4ZM65.1 72C61.9 72 59.3 69.4 59.3 66.2C59.3 63 61.9 60.4 65.1 60.4C68.3 60.4 70.9 63 70.9 66.2C70.9 69.4 68.3 72 65.1 72Z" fill="white" stroke="white"/>
</svg>
