<svg width="36" height="36" viewBox="0 0 36 36" fill="none" xmlns="http://www.w3.org/2000/svg">
<path d="M20.1163 8.54364L19.1863 6.46763C19.1863 6.46763 20.0663 4.92329 21.3287 4.35862C21.3287 4.35862 21.6443 4.34196 22.6903 4.92329C22.6903 4.92329 23.255 4.82362 23.3547 4.69096C23.3547 4.69096 23.7533 3.12995 24.0687 3.09662H26.6927C26.6927 3.09662 26.9917 3.11329 27.1743 3.84395L27.4567 4.59129C27.4567 4.59129 27.656 4.84029 28.1043 4.92329L29.3 4.34196C29.3 4.34196 29.5823 4.30862 29.7317 4.42496C29.7317 4.42496 30.944 5.37163 31.5417 6.25163C31.5417 6.25163 31.6247 6.4343 31.5417 6.6833L31.0933 7.69664C31.0933 7.69664 30.977 7.77964 31.0767 8.0453L31.226 8.37731C31.226 8.37731 31.2427 8.49364 31.442 8.5433L32.6543 8.95864C32.6543 8.95864 32.8703 9.05831 32.8703 9.39031V11.7983C32.8703 11.7983 32.8537 12.064 32.5713 12.1637L31.442 12.5123C31.442 12.5123 31.226 12.612 31.1763 12.7283L31.0433 13.077C31.0433 13.077 30.9603 13.2763 31.06 13.4423L31.5417 14.389C31.5417 14.389 31.6413 14.6547 31.525 14.8207L30.678 15.8337L29.748 16.6307C29.748 16.6307 29.366 16.7637 29.117 16.6307L28.237 16.1823C28.237 16.1823 27.988 16.0993 27.8217 16.232C27.8217 16.232 27.3733 16.3317 27.3567 16.5807L27.041 17.7267C27.041 17.7267 26.8583 17.9923 26.576 18.009H24.1513C24.1513 18.009 23.8193 17.876 23.7527 17.677L23.3707 16.4647C23.3707 16.4647 23.321 16.3153 23.022 16.2323L22.856 16.1327C22.856 16.1327 22.5903 16.116 22.4243 16.2323L21.6603 16.631C21.6603 16.631 21.461 16.764 21.162 16.6643C21.162 16.6643 19.6177 15.4353 19.3683 14.9373C19.3683 14.9373 19.1523 14.572 19.3187 14.3063L20.0493 12.6953H22.7063C22.7063 12.6953 23.6363 14.024 25.4133 14.0403C25.4133 14.0403 28.5853 14.057 28.9173 10.553C28.9173 10.553 28.9173 7.31463 25.4133 7.0323C25.4133 7.0323 23.7527 6.99897 22.7063 8.32764L22.5237 8.54364H20.1163Z" fill="white"/>
<path d="M15.7237 8.5436L16.6537 6.46761C16.6537 6.46761 15.7737 4.92328 14.5113 4.35861C14.5113 4.35861 14.1957 4.34195 13.1497 4.92328C13.1497 4.92328 12.585 4.82361 12.4853 4.69095C12.4853 4.69095 12.0867 3.12995 11.7713 3.09662H9.14733C9.14733 3.09662 8.84833 3.11329 8.66567 3.84395L8.38333 4.59128C8.38333 4.59128 8.184 4.84028 7.73567 4.92328L6.54 4.34195C6.54 4.34195 6.25767 4.30861 6.10833 4.42495C6.10833 4.42495 4.896 5.37161 4.29833 6.25161C4.29833 6.25161 4.21533 6.43427 4.29833 6.68327L4.74667 7.69627C4.74667 7.69627 4.863 7.77927 4.76333 8.04493L4.614 8.37693C4.614 8.37693 4.59733 8.49327 4.398 8.54293L3.18567 8.95826C3.18567 8.95826 2.96967 9.05793 2.96967 9.38993V11.7979C2.96967 11.7979 2.98633 12.0636 3.26867 12.1633L4.398 12.5119C4.398 12.5119 4.614 12.6116 4.66367 12.7279L4.79667 13.0766C4.79667 13.0766 4.87967 13.2759 4.78 13.4419L4.29833 14.3886C4.29833 14.3886 4.19867 14.6542 4.315 14.8202L5.162 15.8332L6.092 16.6302C6.092 16.6302 6.474 16.7632 6.723 16.6302L7.603 16.1819C7.603 16.1819 7.852 16.0989 8.01833 16.2316C8.01833 16.2316 8.46667 16.3312 8.48333 16.5802L8.799 17.7262C8.799 17.7262 8.98167 17.9919 9.264 18.0086H11.6887C11.6887 18.0086 12.0207 17.8756 12.0873 17.6766L12.4693 16.4642C12.4693 16.4642 12.519 16.3149 12.818 16.2319L12.984 16.1322C12.984 16.1322 13.2497 16.1156 13.4157 16.2319L14.1797 16.6306C14.1797 16.6306 14.379 16.7636 14.678 16.6639C14.678 16.6639 16.2223 15.4349 16.4717 14.9369C16.4717 14.9369 16.6877 14.5716 16.5213 14.3059L15.7907 12.6949H13.1337C13.1337 12.6949 12.2037 14.0236 10.4267 14.0399C10.4267 14.0399 7.25467 14.0566 6.92267 10.5526C6.92267 10.5526 6.92267 7.31427 10.4267 7.03194C10.4267 7.03194 12.0873 6.99861 13.1337 8.32727L13.3163 8.54327H15.7237V8.5436Z" fill="white"/>
<path d="M9.5 9.07031H25.2099L24.5622 8.40597L25.2929 7.72498L26.8706 9.30264C26.8706 9.30264 27.1196 9.75097 26.6049 10.0333H9.5V9.07031Z" fill="white"/>
<path d="M26.358 12.0263H10.648L11.2957 12.6906L10.565 13.3716L8.98734 11.794C8.98734 11.794 8.73834 11.3456 9.25301 11.0633H26.358V12.0263Z" fill="white"/>
<path d="M17.9043 20.041C15.17 20.041 12.9533 22.2577 12.9533 24.992C12.9533 27.7263 15.17 29.9429 17.9043 29.9429C20.6387 29.9429 22.8554 27.7263 22.8554 24.992C22.855 22.2577 20.6387 20.041 17.9043 20.041ZM19.3913 26.9386C19.1747 27.2276 18.862 27.4293 18.4533 27.5439V28.4256C18.3787 28.4506 18.3 28.4666 18.218 28.4743C18.1357 28.4816 18.0673 28.4856 18.0123 28.4856C17.9573 28.4856 17.8903 28.4819 17.8107 28.4743C17.731 28.4666 17.651 28.4506 17.5713 28.4256V27.6409C17.4267 27.6409 17.2937 27.6346 17.1717 27.6223C17.0497 27.6099 16.93 27.5909 16.813 27.5663C16.696 27.5413 16.58 27.5089 16.4653 27.4689C16.3507 27.4289 16.2263 27.3819 16.0917 27.3269C16.1117 27.1476 16.1453 26.9656 16.1927 26.7813C16.24 26.5969 16.2983 26.4003 16.3683 26.1909C16.6023 26.2906 16.814 26.3639 17.0037 26.4113C17.193 26.4586 17.3747 26.4823 17.5493 26.4823C17.7983 26.4823 17.9903 26.4413 18.1247 26.3589C18.259 26.2766 18.3263 26.1486 18.3263 25.9739C18.3263 25.8196 18.2677 25.7013 18.1507 25.619C18.0337 25.537 17.8903 25.461 17.721 25.391L17.325 25.2266C17.1757 25.162 17.0337 25.0896 16.899 25.01C16.7643 24.9303 16.6487 24.8343 16.5513 24.7223C16.4543 24.6103 16.377 24.4783 16.3197 24.3263C16.2623 24.1743 16.2337 23.9936 16.2337 23.7846C16.2337 23.3463 16.352 22.9963 16.5887 22.7347C16.8253 22.473 17.153 22.305 17.5713 22.2303V21.5577C17.651 21.5327 17.7307 21.5167 17.8107 21.509C17.8903 21.5017 17.9577 21.4977 18.0123 21.4977C18.067 21.4977 18.1357 21.5013 18.218 21.509C18.3 21.5163 18.3787 21.5327 18.4533 21.5577V22.2077C18.6277 22.2277 18.8033 22.26 18.9803 22.305C19.157 22.3497 19.3453 22.4073 19.5447 22.477C19.5097 22.811 19.4077 23.1646 19.2383 23.5383C19.069 23.4636 18.902 23.4013 18.7377 23.3516C18.5733 23.302 18.3613 23.277 18.1023 23.277C18.0377 23.277 17.974 23.2806 17.9117 23.2883C17.8493 23.296 17.792 23.3133 17.7397 23.3406C17.6873 23.368 17.645 23.4053 17.6127 23.4526C17.5803 23.5 17.564 23.5636 17.564 23.6433C17.564 23.7876 17.615 23.8963 17.7173 23.9683C17.8193 24.0406 17.9303 24.099 18.05 24.144L18.4683 24.301C18.6377 24.3656 18.797 24.438 18.9467 24.5176C19.096 24.5973 19.228 24.697 19.3427 24.8166C19.4573 24.9363 19.548 25.0833 19.6153 25.2576C19.6827 25.432 19.7163 25.6463 19.7163 25.9003C19.7163 26.3033 19.608 26.6496 19.3913 26.9386Z" fill="white"/>
<path d="M29.8762 24.7948C29.5732 24.9678 29.2228 25.0672 28.8492 25.0672C28.4725 25.0672 28.1198 24.9662 27.8155 24.7908C26.6098 24.8908 24.7909 25.3752 24.8802 27.3959V32.9219H32.8181V27.3752C32.8178 27.3755 33.0471 25.1145 29.8762 24.7948ZM28.9008 31.0123L28.0288 29.5066L28.4638 26.6529L28.8488 25.8432L29.2785 26.6529L29.7725 29.5066L28.9008 31.0123Z" fill="white"/>
<path d="M28.8492 20.059C27.2289 20.059 25.9152 21.3726 25.9152 22.993C25.9152 24.6133 27.2289 25.927 28.8492 25.927C30.4695 25.927 31.7832 24.6133 31.7832 22.993C31.7832 21.3726 30.4695 20.059 28.8492 20.059ZM28.8492 25.0673C27.7035 25.0673 26.7745 24.1386 26.7745 22.9926C26.7745 22.8346 26.7929 22.6806 26.8262 22.5326C27.6975 22.281 28.5749 21.9313 28.8489 21.498C28.8489 21.498 29.3922 22.144 30.8855 22.5983C30.9102 22.726 30.9235 22.8576 30.9235 22.9923C30.9239 24.1386 29.9949 25.0673 28.8492 25.0673Z" fill="white"/>
<path d="M8.01765 24.7949C7.71465 24.9679 7.36432 25.0672 6.99065 25.0672C6.61398 25.0672 6.26131 24.9662 5.95698 24.7909C4.75131 24.8909 2.9323 25.3752 3.02163 27.3959V32.922H10.9597V27.3753C10.9593 27.3756 11.1887 25.1146 8.01765 24.7949ZM7.04231 31.0123L6.17031 29.5066L6.60531 26.6529L6.99031 25.8432L7.41998 26.6529L7.91398 29.5066L7.04231 31.0123Z" fill="white"/>
<path d="M6.99063 20.059C5.3703 20.059 4.05664 21.3727 4.05664 22.993C4.05664 24.6134 5.3703 25.927 6.99063 25.927C8.61095 25.927 9.92461 24.6134 9.92461 22.993C9.92461 21.3727 8.61095 20.059 6.99063 20.059ZM6.99063 25.0674C5.84497 25.0674 4.91597 24.1387 4.91597 22.9927C4.91597 22.8347 4.9343 22.6807 4.96764 22.5327C5.83897 22.281 6.7163 21.9314 6.99029 21.498C6.99029 21.498 7.53363 22.144 9.02695 22.5984C9.05162 22.726 9.06495 22.8577 9.06495 22.9924C9.06529 24.1387 8.13629 25.0674 6.99063 25.0674Z" fill="white"/>
</svg>
