<svg width="47" height="35" viewBox="0 0 47 35" fill="none" xmlns="http://www.w3.org/2000/svg">
<path d="M46.8001 7.42187C46.8001 6.72187 46.8001 6.02187 46.9001 5.32187C46.9001 5.22187 46.9001 5.02187 46.9001 5.02187V4.92187C47.0001 4.52187 46.6001 4.12187 46.2001 4.22187C43.8001 4.82187 41.4001 5.22187 39.0001 5.42187C38.0001 5.62187 37.0001 5.62187 36.0001 5.12187C34.8001 4.52187 33.5001 3.92187 32.3001 3.42187C29.7001 2.32187 27.2001 1.12187 24.5001 0.121873C23.7001 -0.178127 22.8001 0.121873 22.0001 0.521873C20.7001 1.02187 19.5001 1.72187 18.4001 2.42187C18.3001 2.42187 18.2001 2.32187 18.1001 2.32187C17.0001 1.92187 16.0001 1.62187 14.9001 1.92187C12.5001 2.62187 10.5001 4.12187 8.30006 4.92187C6.80006 5.42187 5.10006 5.02187 3.70006 4.62187C2.80006 4.42187 1.80006 4.12187 1.00006 3.72187C0.800055 3.62187 0.600055 3.72187 0.600055 3.92187C-0.399945 8.52187 0.100055 13.5219 0.600055 18.3219C0.700055 19.0219 0.700055 19.9219 1.00006 20.4219C1.10006 20.6219 1.30006 20.6219 1.60006 20.6219C2.70006 20.4219 4.40006 20.5219 5.40006 20.8219C5.80006 20.9219 6.10006 21.1219 6.50006 21.2219C6.40006 22.0219 6.40006 22.7219 6.30006 23.5219C6.20006 24.5219 6.10006 25.5219 6.40006 26.5219C6.90006 28.1219 8.40005 28.8219 9.90005 28.6219C10.7001 30.1219 12.3001 30.6219 13.8001 30.0219C14.2001 32.0219 16.1001 33.1219 17.9001 32.5219C18.5001 34.1219 20.0001 35.1219 21.7001 34.7219C22.6001 34.5219 23.3001 33.8219 23.7001 33.1219C23.8001 32.9219 23.9001 32.7219 24.0001 32.5219C24.3001 32.7219 24.5001 32.8219 24.8001 33.0219C26.2001 34.1219 28.3001 34.0219 29.0001 32.1219C29.2001 31.4219 28.5001 30.7219 28.1001 30.3219C27.8001 30.0219 27.5001 29.8219 27.2001 29.5219C27.1001 29.4219 27.1001 29.3219 27.0001 29.2219C27.4001 28.9219 27.7001 29.0219 27.9001 29.3219C28.3001 29.6219 28.6001 30.0219 29.0001 30.3219C30.4001 31.6219 31.9001 33.0219 33.7001 31.7219C34.4001 31.2219 34.4001 30.5219 34.4001 29.8219C34.4001 29.1219 34.0001 28.7219 33.5001 28.3219C32.9001 27.7219 32.3001 27.1219 31.7001 26.5219C31.4001 26.2219 31.2001 26.0219 30.9001 25.8219C30.5001 25.5219 31.1001 25.6219 31.3001 25.6219C31.5001 25.7219 31.7001 25.9219 31.9001 26.1219C33.1001 27.2219 34.3001 29.0219 36.0001 29.1219C37.8001 29.2219 39.1001 27.4219 38.4001 25.6219C38.0001 24.7219 37.0001 24.0219 36.4001 23.4219C36.1001 23.1219 35.7001 22.7219 35.3001 22.4219C35.1001 22.3219 35.0001 22.1219 34.8001 22.0219C34.5001 21.8219 34.6001 21.7219 35.1001 21.7219C35.3001 21.8219 35.4001 22.0219 35.6001 22.1219C36.5001 22.9219 37.4001 23.5219 38.3001 24.2219C39.1001 24.7219 39.7001 25.0219 40.7001 24.6219C42.1001 24.1219 42.3001 22.2219 41.9001 20.9219C41.9001 20.7219 41.8001 20.6219 41.7001 20.4219C42.0001 20.4219 42.3001 20.3219 42.6001 20.3219C43.8001 20.2219 45.0001 20.1219 46.2001 20.0219C46.5001 20.0219 46.8001 19.8219 46.8001 19.4219C46.9001 15.5219 46.7001 11.5219 46.8001 7.42187ZM18.9001 31.7219C18.8001 31.3219 18.4001 31.2219 18.1001 31.3219C16.5001 32.1219 14.9001 31.0219 14.9001 29.2219C14.9001 28.8219 14.4001 28.5219 14.1001 28.7219C12.9001 29.5219 11.4001 29.1219 10.8001 27.7219C10.7001 27.5219 10.4001 27.4219 10.2001 27.4219C8.90005 27.8219 7.80006 27.1219 7.50006 25.8219C7.30006 25.2219 7.50006 24.5219 7.50006 23.9219C7.60006 23.1219 7.60006 22.2219 7.70006 21.4219C7.80006 20.0219 7.90006 18.8219 9.30006 18.2219C10.6001 17.7219 11.7001 18.7219 12.0001 19.9219C12.1001 20.3219 12.6001 20.5219 12.9001 20.2219C14.2001 18.8219 16.3001 19.5219 16.6001 21.4219C16.7001 21.9219 17.2001 21.9219 17.5001 21.7219C18.4001 20.9219 19.8001 21.0219 20.6001 21.9219C21.4001 22.8219 21.0001 24.1219 20.6001 25.2219C20.4001 25.7219 21.0001 26.2219 21.4001 25.9219C23.3001 24.5219 25.4001 26.6219 24.6001 28.7219C24.3001 29.4219 24.0001 30.1219 23.6001 30.9219C23.2001 31.7219 23.0001 32.6219 22.4001 33.3219C21.2001 34.6219 19.2001 33.4219 18.9001 31.7219ZM41.1001 19.4219C39.7001 18.0219 38.2001 16.5219 36.8001 15.1219C35.9001 14.2219 34.9001 13.2219 34.0001 12.3219C33.5001 11.8219 32.9001 11.6219 32.3001 11.4219C31.0001 10.8219 29.8001 10.3219 28.5001 9.72187C28.2001 9.62187 27.9001 9.42187 27.6001 9.32187C27.9001 9.42187 27.5001 9.22187 27.5001 9.22187C27.2001 9.02187 27.0001 8.92187 26.7001 8.72187C26.0001 8.32187 25.4001 8.02187 24.7001 7.62187C24.4001 7.42187 23.9001 7.02187 23.5001 7.02187C23.0001 7.02187 22.4001 7.62187 22.0001 7.92187C21.3001 8.32187 20.6001 8.72187 19.9001 9.12187C18.5001 9.92187 17.1001 10.7219 15.7001 11.6219C14.2001 12.4219 13.0001 10.8219 12.7001 9.42187C12.5001 8.72187 12.6001 7.92187 12.9001 7.22187C13.2001 6.62187 14.0001 6.22187 14.6001 5.92187C16.1001 5.02187 17.6001 4.12187 19.1001 3.22187C20.5001 2.42187 21.9001 1.62187 23.4001 1.12187C24.1001 0.921873 24.7001 1.22187 25.4001 1.52187C26.8001 2.12187 28.1001 2.72187 29.5001 3.32187C31.0001 4.02187 32.5001 4.62187 34.0001 5.32187C34.9001 5.72187 35.8001 6.32187 36.7001 6.52187C38.6001 6.92187 40.7001 6.42187 42.6001 6.12187C43.7001 5.92187 44.8001 5.72187 45.8001 5.52187C45.8001 6.12187 45.8001 6.72187 45.7001 7.22187C45.6001 11.1219 45.7001 15.0219 45.9001 18.9219C45.1001 19.0219 44.2001 19.1219 43.4001 19.1219C42.8001 19.2219 42.2001 19.2219 41.6001 19.3219C41.4001 19.4219 41.3001 19.4219 41.1001 19.4219Z" fill="white"/>
</svg>
