<svg width="160" height="162" viewBox="0 0 160 162" fill="none" xmlns="http://www.w3.org/2000/svg">
<rect x="0.5" y="0.5" width="159" height="161" rx="12.5" fill="url(#paint0_linear)" stroke="#D3D3D3"/>
<g filter="url(#filter0_d)">
<path fill-rule="evenodd" clip-rule="evenodd" d="M104.259 59.7491C109.241 65.2341 112.307 72.6105 112.307 80.5543C112.307 94.5506 102.918 106.466 89.8887 110.249V97.5768C96.2117 94.3614 100.427 87.7416 100.427 80.3652C100.427 75.6367 98.7026 71.0974 95.8285 67.6929L80.5 82.4457L65.5547 67.6929C62.6807 71.0974 60.7646 75.4476 60.7646 80.3652C60.7646 87.7416 64.9799 94.1723 71.3029 97.5768V110.438C58.2737 106.466 48.885 94.7397 48.885 80.7434C48.885 72.6105 51.9507 65.2341 57.1241 59.7491C59.615 57.1011 62.6807 54.4532 65.938 52.7509L80.3084 66.9363L94.6788 52.7509C97.9361 54.4532 101.768 57.1011 104.259 59.7491ZM117.672 44.618C127.252 53.8858 133 66.9363 133 81.1217C133 95.3071 127.06 108.358 117.672 117.625C115.947 119.328 114.223 120.841 112.307 122.354C108.474 125.191 104.068 127.65 99.469 129.352C96.4033 130.487 93.146 131.433 89.8887 132V117.247C96.5949 115.545 102.535 112.14 107.325 107.412C114.223 100.603 118.438 91.3352 118.438 81.1217C118.438 70.9082 114.223 61.4513 107.325 54.8315C103.876 51.427 99.469 48.5899 94.8704 46.6985L80.3084 60.8839L65.938 46.6985C61.3394 48.5899 57.1241 51.427 53.6752 54.8315C46.7774 61.6404 42.562 70.9082 42.562 81.1217C42.562 91.3352 46.7774 100.792 53.6752 107.412C58.4653 112.14 64.4051 115.545 71.1113 117.247V132C67.854 131.433 64.5967 130.487 61.531 129.352C56.9325 127.65 52.7172 125.191 48.6934 122.354C46.7774 120.841 45.0529 119.328 43.3285 117.625C33.7482 108.358 28 95.3071 28 81.1217C28 66.9363 33.9398 54.0749 43.3285 44.618C45.0529 42.9157 46.7774 41.4026 48.6934 39.8895C50.6095 38.3764 52.7172 37.0524 54.8248 35.9176C56.9325 34.7828 59.2318 33.6479 61.3394 32.8914C63.2555 32.1348 65.3631 31.5674 67.4708 31L80.1168 43.294L92.9544 31C95.2537 31.5674 97.3613 32.1348 99.469 33.0805C101.577 33.8371 103.876 34.9719 105.792 35.9176C108.091 37.0524 110.199 38.5655 112.307 40.0787C114.223 41.4026 115.947 42.9157 117.672 44.618Z" fill="#333333"/>
</g>
<defs>
<filter id="filter0_d" x="28" y="31" width="105" height="102" filterUnits="userSpaceOnUse" color-interpolation-filters="sRGB">
<feFlood flood-opacity="0" result="BackgroundImageFix"/>
<feColorMatrix in="SourceAlpha" type="matrix" values="0 0 0 0 0 0 0 0 0 0 0 0 0 0 0 0 0 0 127 0"/>
<feOffset dy="1"/>
<feColorMatrix type="matrix" values="0 0 0 0 1 0 0 0 0 1 0 0 0 0 1 0 0 0 1 0"/>
<feBlend mode="normal" in2="BackgroundImageFix" result="effect1_dropShadow"/>
<feBlend mode="normal" in="SourceGraphic" in2="effect1_dropShadow" result="shape"/>
</filter>
<linearGradient id="paint0_linear" x1="80" y1="0" x2="80" y2="162" gradientUnits="userSpaceOnUse">
<stop stop-color="#FDFDFD"/>
<stop offset="1" stop-color="#CBCBCB"/>
</linearGradient>
</defs>
</svg>
