<svg width="18" height="13" viewBox="0 0 18 13" fill="none" xmlns="http://www.w3.org/2000/svg">
<path d="M0.375855 1.05476C2.84628 3.06946 7.18112 6.61392 8.45518 7.71909C8.62622 7.86825 8.80966 7.94408 9.0001 7.94408C9.19016 7.94408 9.37329 7.86896 9.54394 7.72051C10.8191 6.61426 15.1539 3.06946 17.6244 1.05476C17.7782 0.929568 17.8016 0.709515 17.6771 0.556461C17.3893 0.202786 16.9601 0 16.5001 0H1.50012C1.04017 0 0.610945 0.202787 0.323121 0.556495C0.198597 0.709516 0.222046 0.929568 0.375855 1.05476Z" fill="#CFCFCF"/>
<path d="M17.7825 2.14658C17.6496 2.087 17.4932 2.10778 17.3826 2.19878C14.6429 4.43526 11.1464 7.30196 10.0463 8.25655C9.4288 8.79327 8.57187 8.79327 7.95298 8.25584C6.78038 7.23845 2.85384 4.02407 0.617414 2.19875C0.506074 2.10775 0.349348 2.08767 0.217512 2.14655C0.0849726 2.20583 0 2.33349 0 2.47419V11.5556C0 12.3522 0.672715 13 1.50001 13H16.5C17.3273 13 18 12.3522 18 11.5556V2.47419C18 2.33349 17.915 2.20549 17.7825 2.14658Z" fill="#CFCFCF"/>
</svg>
