<svg width="17" height="18" viewBox="0 0 17 18" fill="none" xmlns="http://www.w3.org/2000/svg">
<path d="M9.91787 0.000145978C6.53545 -0.0233804 3.76594 2.79978 3.74324 6.3052C3.72054 9.81063 6.44464 12.6808 9.82706 12.7044C13.2095 12.7279 15.979 9.90474 16.0017 6.39931C16.0244 2.89389 13.3003 0.0236723 9.91787 0.000145978ZM9.84976 10.8223C7.46618 10.7987 5.55931 8.799 5.55931 6.32873C5.58201 3.85847 7.51158 1.88225 9.89517 1.88225C12.2788 1.90578 14.1856 3.90552 14.1856 6.37579C14.1629 8.84605 12.2333 10.8458 9.84976 10.8223Z" fill="#333333"/>
<path d="M2.13147 16.8215L6.10412 12.6809C6.35383 12.4221 6.33112 11.9515 6.08142 11.5281L6.44463 11.1516L5.6274 10.3282L5.26419 10.7046C4.85558 10.4458 4.40155 10.4458 4.15184 10.7046L0.179195 14.8453C-0.138616 15.1746 -0.0251094 15.8569 0.451608 16.351L0.655915 16.5627C1.15533 17.0332 1.79096 17.1509 2.13147 16.8215Z" fill="#333333"/>
</svg>
