<svg width="17" height="17" viewBox="0 0 17 17" fill="none" xmlns="http://www.w3.org/2000/svg">
<path d="M9.95147 0.000141333C6.55758 -0.0226365 3.77869 2.71069 3.75591 6.10458C3.73313 9.49847 6.46646 12.2774 9.86035 12.3001C13.2542 12.3229 16.0331 9.58959 16.0559 6.1957C16.0787 2.80181 13.3454 0.0229191 9.95147 0.000141333ZM9.88313 10.4779C7.49146 10.4551 5.57813 8.51903 5.57813 6.12736C5.60091 3.7357 7.53702 1.82236 9.92869 1.82236C12.3204 1.84514 14.2337 3.78125 14.2337 6.17292C14.2109 8.56459 12.2748 10.5007 9.88313 10.4779Z" fill="white"/>
<path d="M2.1387 16.2863L6.12481 12.2774C6.37537 12.0268 6.35259 11.5713 6.10203 11.1613L6.46648 10.7968L5.64647 9.99959L5.28204 10.364C4.87204 10.1135 4.41647 10.1135 4.16592 10.364L0.179803 14.3729C-0.139086 14.6918 -0.0251945 15.3524 0.453139 15.8307L0.658138 16.0357C1.15925 16.4913 1.79703 16.6051 2.1387 16.2863Z" fill="white"/>
</svg>
