<svg width="15" height="17" viewBox="0 0 15 17" fill="none" xmlns="http://www.w3.org/2000/svg">
<path d="M7.38658 8.18894C8.57639 8.18894 9.60667 7.78545 10.4485 6.98935C11.2903 6.19339 11.717 5.21948 11.717 4.09434C11.717 2.96959 11.2903 1.99555 10.4483 1.19933C9.60639 0.403494 8.57625 0 7.38658 0C6.19664 0 5.16664 0.403494 4.32483 1.19946C3.48302 1.99542 3.05615 2.96946 3.05615 4.09434C3.05615 5.21948 3.48302 6.19352 4.32497 6.98948C5.16691 7.78532 6.19705 8.18894 7.38658 8.18894Z" fill="#CFCFCF"/>
<path d="M14.9636 13.072C14.9394 12.7408 14.8903 12.3794 14.818 11.9979C14.745 11.6134 14.651 11.25 14.5386 10.9178C14.4224 10.5745 14.2644 10.2355 14.069 9.91061C13.8663 9.57339 13.6282 9.27975 13.361 9.03812C13.0816 8.78534 12.7395 8.5821 12.3439 8.43385C11.9496 8.28638 11.5127 8.21168 11.0454 8.21168C10.8619 8.21168 10.6844 8.28288 10.3416 8.4939C10.1306 8.62399 9.88386 8.77444 9.60843 8.94085C9.37291 9.08274 9.05385 9.21568 8.65977 9.33604C8.27528 9.45368 7.8849 9.51334 7.49959 9.51334C7.11428 9.51334 6.72403 9.45368 6.33914 9.33604C5.94546 9.21581 5.62641 9.08287 5.39116 8.94098C5.11833 8.77613 4.87143 8.62568 4.65731 8.49377C4.31493 8.28275 4.1373 8.21155 3.95376 8.21155C3.48629 8.21155 3.04955 8.28638 2.65546 8.43398C2.26014 8.58197 1.9179 8.78521 1.63821 9.03825C1.37114 9.28001 1.13288 9.57352 0.930419 9.91061C0.735227 10.2355 0.577208 10.5744 0.460888 10.918C0.348547 11.2501 0.254586 11.6134 0.181612 11.9979C0.109324 12.3789 0.0602173 12.7404 0.0359383 13.0724C0.0120709 13.3977 0 13.7353 0 14.0763C0 14.9637 0.298343 15.6821 0.886662 16.2119C1.46771 16.7347 2.23654 17 3.17149 17H11.8285C12.7635 17 13.532 16.7349 14.1132 16.2119C14.7017 15.6825 15 14.9639 15 14.0762C14.9999 13.7336 14.9877 13.3957 14.9636 13.072Z" fill="#CFCFCF"/>
</svg>
