<svg width="20" height="20" viewBox="0 0 20 20" fill="none" xmlns="http://www.w3.org/2000/svg">
<path d="M17.7891 0.887276H2.05816C1.34543 0.887276 0.759979 1.47273 0.759979 2.18546V17.9164C0.759979 18.6291 1.34543 19.2145 2.05816 19.2145H17.7891C18.5018 19.2145 19.0873 18.6291 19.0873 17.9164V2.18546C19.0873 1.47273 18.5018 0.887276 17.7891 0.887276ZM9.92362 3.43273C11.7563 3.43273 13.2327 4.90909 13.2327 6.74182C13.2327 8.57455 11.7563 10.0509 9.92362 10.0509C8.09089 10.0509 6.61453 8.57455 6.61453 6.74182C6.61453 4.90909 8.09089 3.43273 9.92362 3.43273ZM3.81453 16.16C3.81453 16.16 3.55998 13.36 6.84362 12.3673C7.14907 12.2655 7.50543 12.2145 7.88725 12.1636C8.47271 12.0873 10.84 12.0109 11.96 12.1891C12.2909 12.24 12.6218 12.3164 12.9782 12.4182C14.5054 12.8509 16.0582 13.8691 16.0582 16.1855H3.81453V16.16Z" fill="#404450"/>
</svg>
