<svg width="31" height="31" viewBox="0 0 31 31" fill="none" xmlns="http://www.w3.org/2000/svg">
<path d="M15.6 2.80005C22.6 2.80005 28.3 8.50005 28.3 15.5C28.3 22.5 22.6 28.2001 15.6 28.2001C8.60005 28.2001 2.80005 22.6 2.80005 15.6C2.80005 8.60005 8.60005 2.80005 15.6 2.80005ZM15.6 0.300049C7.10005 0.300049 0.300049 7.10005 0.300049 15.6C0.300049 24 7.10005 30.9 15.6 30.9C24 30.9 30.9 24.1 30.9 15.6C30.9 7.10005 24 0.300049 15.6 0.300049ZM13 13H10.5V15.5H13V23.1H16.8V15.5H19.1L19.3 13H16.8C16.8 13 16.8 12.4 16.8 11.9C16.8 11.3 16.9 11.1 17.5 11.1C18 11.1 19.3 11.1 19.3 11.1V7.90005C19.3 7.90005 16.6 7.90005 16.2 7.90005C13.9 7.90005 12.9 8.90005 12.9 10.8C13 12.6 13 13 13 13Z" fill="#F0F0F0"/>
</svg>
