<svg width="31" height="31" viewBox="0 0 31 31" fill="none" xmlns="http://www.w3.org/2000/svg">
<path d="M15.6 2.80005C22.6 2.80005 28.3 8.50005 28.3 15.5C28.3 22.5 22.6 28.2001 15.6 28.2001C8.60005 28.2001 2.80005 22.6 2.80005 15.6C2.80005 8.60005 8.60005 2.80005 15.6 2.80005ZM15.6 0.300049C7.10005 0.300049 0.300049 7.10005 0.300049 15.6C0.300049 24 7.10005 30.9 15.6 30.9C24 30.9 30.9 24.1 30.9 15.6C30.9 7.10005 24 0.300049 15.6 0.300049ZM23.9 11.5C23.3 11.8 22.7001 11.9 22.1 12C22.7001 11.6 23.2001 11 23.5 10.3C22.9 10.7 22.2001 10.9 21.5 11.1C20.9 10.5 20.1 10.1 19.2001 10.1C17.2001 10.1 15.7 12 16.1 14C13.5 13.9 11.2 12.6 9.60005 10.7C8.80005 12.1 9.20005 14 10.6 14.9C10.1 14.9 9.60005 14.7 9.20005 14.5C9.20005 16 10.2 17.3001 11.7 17.6C11.3 17.7001 10.8 17.7001 10.3 17.7001C10.7 18.9001 11.9 19.9 13.2 19.9C11.9 20.9 10.2 21.4001 8.60005 21.2001C10 22.1 11.6 22.6 13.4 22.6C19.2 22.6 22.5 17.7 22.3 13.3C22.9 12.7 23.5 12.1 23.9 11.5Z" fill="#F0F0F0"/>
</svg>
