<svg width="75" height="75" viewBox="0 0 75 75" fill="none" xmlns="http://www.w3.org/2000/svg">
<path d="M70.1 72.6V65.2H66.5V60.3H64.1V32.2H66.5V27.3H72.6V15.5L37.5 0L2.4 15.5V27.3H8.5V32.2H10.9V60.3H8.5V65.2H4.8V72.5H0V75H75V72.6H70.1ZM64.1 62.8V65.2H54.4V62.8H64.1ZM56.8 60.3V32.2H61.6V60.3H56.8ZM64.1 29.7H54.4V27.3H64.1V29.7ZM4.8 24.8V17L37.5 2.7L70.1 17.1V24.9H4.8V24.8ZM42.3 60.3V32.2H44.7V27.3H52V32.2H54.4V60.3H52V65.2H44.7V60.3H42.3ZM20.6 60.3V32.2H23V27.3H30.3V32.2H32.7V60.3H30.3V65.2H23V60.3H20.6ZM32.6 29.7V27.3H42.3V29.7H32.6ZM39.9 32.2V60.3H35.1V32.2H39.9ZM32.7 62.8H42.4V65.2H32.7V62.8ZM10.9 29.7V27.3H20.6V29.7H10.9ZM18.1 32.2V60.3H13.3V32.2H18.1ZM10.9 62.8H20.6V65.2H10.9V62.8ZM67.7 72.5H7.3V67.6H67.8V72.5H67.7ZM37.5 6.5C33.5 6.5 30.2 9.8 30.2 13.8C30.2 17.8 33.5 21.1 37.5 21.1C41.5 21.1 44.8 17.8 44.8 13.8C44.7 9.8 41.5 6.5 37.5 6.5ZM37.5 18.7C34.8 18.7 32.7 16.5 32.7 13.8C32.7 11.1 34.9 8.9 37.5 8.9C40.1 8.9 42.3 11.1 42.3 13.8C42.3 16.5 40.2 18.7 37.5 18.7ZM38 13.3V12C38.3 12 38.5 12.1 38.7 12.1C38.8 12.2 39.2 12.3 39.5 12C39.6 11.9 39.9 11.3 39.2 11C38.8 10.9 38.4 10.8 38 10.7V10.4C38 10.3 38 10.1 37.9 10.1C37.7 9.9 37.4 9.9 37.2 10.1C37.1 10.2 37.1 10.3 37.1 10.4V10.7C36.6 10.8 35.3 11.1 35.3 12.6C35.2 13.8 36.7 14.2 37.1 14.4V15.7C36.8 15.7 36.5 15.6 36.2 15.5C35.9 15.4 35.6 15.4 35.4 15.6C35.3 15.7 35 16.3 35.6 16.6C36.1 16.8 36.6 16.9 37.1 17V17.3C37.1 17.6 37.3 17.8 37.6 17.8C38 17.8 38.1 17.5 38.1 17.3V17C39.7 16.8 39.9 15.7 39.9 15.2C39.8 14.5 39.6 13.6 38 13.3ZM37 13C37 13 36.5 12.9 36.5 12.5C36.5 12.1 36.9 12 37 12V13ZM38 15.6V14.6C38.3 14.7 38.5 14.8 38.5 14.9C38.5 15 38.7 15.5 38 15.6Z" fill="white"/>
</svg>
