<?xml version="1.0" encoding="utf-8"?>
<!-- Generator: Adobe Illustrator 23.0.5, SVG Export Plug-In . SVG Version: 6.00 Build 0)  -->
<svg version="1.1" id="Layer_1" xmlns="http://www.w3.org/2000/svg" xmlns:xlink="http://www.w3.org/1999/xlink" x="0px" y="0px"
	 width="47px" height="35px" viewBox="0 0 47 35" style="enable-background:new 0 0 47 35;" xml:space="preserve">
<style type="text/css">
	.st0{fill:#343737;}
</style>
<path class="st0" d="M31.3,13.5L21.2,3.2C21.1,1.4,19.5,0,17.5,0s-3.6,1.4-3.7,3.2L3.7,13.5H0l1.2,6.2h1.9l2.1,12.6
	C5.5,33.8,7,35,8.5,35H27c1.6,0,3-1.2,3.2-2.7L32,19.7h2l1-6.2H31.3z M14.7,5.5c0.7,0.7,1.7,1.2,2.8,1.2s2.1-0.4,2.8-1.2l7.9,8H6.8
	L14.7,5.5z M8.1,32.3l-1.3-9.6h3.5l0.9,9.6H8.1z M13.5,32.3l-0.6-9.6h3.5l0.3,9.6H13.5z M22,32.3h-3.1v-9.6h3.5L22,32.3z M27.3,32.3
	h-3.1l0.7-9.6h3.5L27.3,32.3z"/>
</svg>
