<svg width="18" height="17" viewBox="0 0 18 17" fill="none" xmlns="http://www.w3.org/2000/svg">
<path d="M0.875 16.2676C0.642936 16.2676 0.420376 16.1724 0.256282 16.0029C0.0921872 15.8334 0 15.6035 0 15.3638V0.903756C0 0.664065 0.0921872 0.434191 0.256282 0.264704C0.420376 0.0952168 0.642936 0 0.875 0H7.36225L9.11225 1.80751H15.75C15.9821 1.80751 16.2046 1.90273 16.3687 2.07222C16.5328 2.2417 16.625 2.47158 16.625 2.71127V5.42254H14.875V3.61502H8.38775L6.63775 1.80751H1.75V12.6508L3.0625 7.23005H17.9375L15.9163 15.5835C15.8688 15.7789 15.7596 15.9524 15.6058 16.0763C15.452 16.2003 15.2626 16.2676 15.0675 16.2676H0.875Z" fill="#333333"/>
</svg>
