<svg width="65" height="68" viewBox="0 0 65 68" fill="none" xmlns="http://www.w3.org/2000/svg">
<path d="M49.6 67.1H21.3C20.9 67.1 20.6 67 20.4 66.7C20.2 66.4 20 66.1 20 65.7C20 64.1 20.1 62.3 20 61.5C19.7 59.7 13.4 60.3 12.6 60.2C12 60.2 10.1 59.9 8.9 58.9C8.2 58.3 8 57.2 7.8 56.2C7.7 55.5 7.2 43.7 7.2 43.7L3 43.4C2.7 43.4 2.5 43.3 2.3 43.1C0.8 42 0 40.9 0 40C0 39.5 0 38.9 8.2 26.6C8.1 25.5 7.9 22.7 7.8 20.5C7.7 18.4 11.5 11.3 16 7.1C19.5 3.9 25.8 3 29.2 2.8C29.9 2.8 30.5 3.3 30.6 4C30.6 4.7 30.1 5.4 29.4 5.4C26.3 5.6 20.8 6.3 17.8 9C13.6 12.9 10.5 19.1 10.4 20.3C10.5 23 10.9 26.7 10.9 26.7C10.9 27 10.8 27.3 10.7 27.6C7.3 32.6 3.7 38.3 2.8 39.9C3 40.1 3.3 40.4 3.7 40.7L8.6 41C9.3 41 9.8 41.6 9.8 42.2C9.8 42.2 10.2 51.1 10.5 55C10.6 56 10.6 56.5 10.9 56.8C11.4 57.3 12.1 57.5 12.8 57.5C16.2 57.5 22.2 57 22.5 60.5C22.5 61.1 22.7 62.7 22.7 64.3H48.3V53.8C48.3 53.3 48.2 51.3 49.7 49.5C50.1 49 50.7 48.6 51.3 48.3C52.7 47.5 54.5 46.4 55.4 40.8C55.6 39.8 55.9 34 56.1 30.3C56.1 29.6 56.7 29 57.5 29C58.2 29 58.8 29.7 58.7 30.4C58.7 31.3 58.2 39.7 58 41.2C56.9 48.1 54.3 49.6 52.6 50.6C52.2 50.8 51.9 51 51.7 51.2C50.8 52.2 50.9 53.6 50.9 53.6V53.7V65.7C50.9 66.5 50.3 67.1 49.6 67.1ZM45.1 47.8C41.6 47.8 38.8 44.9 38.8 41.4C38.8 39.5 39.6 37.8 40.9 36.6L29.6 32C28.8 33.3 27.3 34.2 25.6 34.2C23 34.2 20.8 32.1 20.8 29.4C20.8 26.8 22.9 24.6 25.6 24.6C26.6 24.6 27.5 24.9 28.2 25.4L37.2 13.1C34.4 12.3 32.4 9.7 32.4 6.7C32.4 3 35.4 0 39.1 0C42.8 0 45.8 3 45.8 6.7C45.8 9 44.6 11.1 42.8 12.3L57 20.7C57.6 19.4 59 18.5 60.5 18.5C62.7 18.5 64.4 20.3 64.4 22.5C64.4 24.7 62.6 26.5 60.5 26.5C59.3 26.5 58.2 26 57.5 25.1L47.1 35.4C49.6 36.3 51.4 38.6 51.4 41.4C51.4 44.9 48.6 47.8 45.1 47.8ZM44.3 37.7C42.6 38 41.3 39.6 41.3 41.4C41.3 43.5 43 45.1 45 45.1C47 45.1 48.7 43.4 48.7 41.4C48.7 39.3 47 37.7 45 37.7C44.8 37.7 44.6 37.7 44.5 37.7C44.5 37.7 44.4 37.7 44.3 37.7ZM30.4 29.4L42.4 34.4L39 15.3L30 27.5C30.2 28.1 30.4 28.7 30.4 29.4ZM41.5 14.6L45 33.8L55.7 23L41.5 14.6ZM25.6 27.3C24.4 27.3 23.5 28.3 23.5 29.4C23.5 30.6 24.5 31.5 25.6 31.5C26.8 31.5 27.7 30.5 27.7 29.4C27.7 28.2 26.8 27.3 25.6 27.3ZM60.5 21.1C59.8 21.1 59.2 21.7 59.2 22.4C59.2 23.1 59.8 23.7 60.5 23.7C61.2 23.7 61.8 23.1 61.8 22.4C61.8 21.7 61.2 21.1 60.5 21.1ZM39.1 2.6C36.9 2.6 35.1 4.4 35.1 6.6C35.1 8.8 36.9 10.6 39.1 10.6C39.2 10.6 39.4 10.6 39.5 10.6H39.6C41.6 10.4 43.1 8.7 43.1 6.6C43.1 4.5 41.3 2.6 39.1 2.6Z" fill="white"/>
</svg>
