<?xml version="1.0" encoding="utf-8"?>
<!-- Generator: Adobe Illustrator 23.0.0, SVG Export Plug-In . SVG Version: 6.00 Build 0)  -->
<svg version="1.1" id="Layer_1" xmlns="http://www.w3.org/2000/svg" xmlns:xlink="http://www.w3.org/1999/xlink" x="0px" y="0px"
	 width="24px" height="24px" viewBox="0 0 24 24" style="enable-background:new 0 0 24 24;" xml:space="preserve">
<style type="text/css">
	.st0{fill:#FFFFFF;}
</style>
<path class="st0" d="M3.7,19.4l1.5,1.5l5-5v-0.8l0.3-0.3c1.1,1,2.6,1.6,4.2,1.6c3.6,0,6.5-2.9,6.5-6.5s-2.9-6.5-6.5-6.5
	S8.2,6.3,8.2,9.9c0,1.6,0.6,3.1,1.6,4.2l-0.3,0.3H8.7L3.7,19.4z M10.2,9.9c0-2.5,2-4.5,4.5-4.5s4.5,2,4.5,4.5s-2,4.5-4.5,4.5
	S10.2,12.4,10.2,9.9z"/>
</svg>
