<svg width="81" height="63" viewBox="0 0 81 63" fill="none" xmlns="http://www.w3.org/2000/svg">
<path d="M54.2 8.3C53.2 7.3 51.4 7.3 50.4 8.3L30.4 28.4C30 28.8 29.2 31.4 29 32.1C27.9 35.7 28.2 36 28.5 36.3C28.7 36.5 29 36.6 29.3 36.6C30.6 36.6 35.9 35 36.4 34.4L56.4 14.3C57.5 13.2 57.5 11.5 56.4 10.5L54.2 8.3ZM29.5 35.2C29.6 34.4 30 32.9 30.5 31.6L33.2 34.3C31.9 34.6 30.4 35.1 29.5 35.2ZM55.4 13.3L35.4 33.3C35.3 33.4 35 33.5 34.6 33.6L31 30.1C31.1 29.7 31.3 29.4 31.4 29.3L51.4 9.3C51.9 8.8 52.8 8.8 53.3 9.3L55.5 11.5C55.9 12 55.9 12.8 55.4 13.3ZM50.1 13.6L36.2 27.6C35.9 27.9 35.9 28.3 36.2 28.6C36.3 28.7 36.5 28.8 36.7 28.8C36.9 28.8 37 28.7 37.2 28.6L51.1 14.6C51.4 14.3 51.4 13.9 51.1 13.6C50.8 13.3 50.4 13.3 50.1 13.6ZM75 44.2V7.4C75 3.3 71.8 0 67.9 0H13.2C9.3 0 6.1 3.3 6.1 7.4V45L0 55.8V56.2C0 59.4 2.5 62.1 5.5 62.1H75.4C78.4 62.1 80.9 59.5 80.9 56.2V55.8L75 44.2ZM9.1 7.4C9.1 5 10.9 3 13.2 3H67.9C70.1 3 72 5 72 7.4V43.6H9.1V7.4ZM8.5 46.7H72.8L76.2 53.4H4.8L8.5 46.7ZM75.4 59.1H5.5C4.2 59.1 3.2 58 3 56.6L3.1 56.5H77.8V56.6C77.7 58 76.7 59.1 75.4 59.1Z" fill="white"/>
</svg>
