<svg width="71" height="62" viewBox="0 0 71 62" fill="none" xmlns="http://www.w3.org/2000/svg">
<path d="M45.7 14.8L32 28.6L24.7 21.2C24.4 20.9 23.9 20.9 23.5 21.2C23.2 21.5 23.2 22.1 23.5 22.4L31.2 30.2C31.2 30.3 31.3 30.3 31.3 30.4C31.6 30.7 32.1 30.7 32.5 30.4L46.8 16C47 15.8 47 15.6 47 15.4C47 15.2 46.9 15 46.8 14.8C46.5 14.5 46 14.5 45.7 14.8ZM63 0H7.1C3.2 0 0 3.6 0 8V45C0 49.4 3.2 53 7.1 53H33.6V58.4H25C24.2 58.4 23.6 59 23.6 59.8C23.6 60.6 24.2 61.2 25 61.2H45C45.8 61.2 46.4 60.6 46.4 59.8C46.4 59 45.8 58.4 45 58.4H36.4V53H63C66.9 53 70.1 49.4 70.1 45V8C70.2 3.6 67 0 63 0ZM63 50.2H7.1C4.8 50.2 2.9 48 2.8 45.2H67.2C67.2 48 65.3 50.2 63 50.2ZM67.3 42.4H2.9V8C2.9 5.1 4.8 2.8 7.2 2.8H63C65.4 2.8 67.3 5.1 67.3 8V42.4Z" fill="white"/>
</svg>
