<svg width="16" height="16" viewBox="0 0 16 16" fill="none" xmlns="http://www.w3.org/2000/svg">
<path d="M15.9493 7.0785C15.9153 6.99715 15.8667 6.92315 15.8047 6.86115L13.8053 4.86181C13.5447 4.60181 13.1233 4.60181 12.8627 4.86181C12.602 5.12247 12.602 5.54447 12.8627 5.80447L13.7247 6.66647H10.0006C9.63198 6.66647 9.33398 6.96512 9.33398 7.33312C9.33398 7.70112 9.63198 7.99978 10.0006 7.99978H13.7246L12.8626 8.86178C12.602 9.12243 12.602 9.54443 12.8626 9.80443C12.9926 9.93509 13.1633 9.99978 13.334 9.99978C13.5047 9.99978 13.6753 9.93512 13.8053 9.80443L15.8047 7.80509C15.8667 7.74375 15.9153 7.66975 15.9493 7.58775C16.0166 7.42515 16.0166 7.24115 15.9493 7.0785Z" fill="#333333"/>
<path d="M11.3353 9.33334C10.9666 9.33334 10.6686 9.632 10.6686 10V13.3333H8.00195V2.66666C8.00195 2.37266 7.80861 2.11266 7.52661 2.028L5.21127 1.33334H10.6686V4.66669C10.6686 5.03469 10.9666 5.33334 11.3353 5.33334C11.7039 5.33334 12.0019 5.03469 12.0019 4.66669V0.666687C12.0019 0.298656 11.7039 0 11.3353 0H0.668609C0.644609 0 0.623266 0.01 0.599953 0.0126563C0.568609 0.016 0.539953 0.0213125 0.509953 0.0286562C0.439953 0.0466563 0.376609 0.074 0.317297 0.111313C0.302641 0.120656 0.284641 0.121312 0.270641 0.131969C0.265266 0.136 0.263266 0.143344 0.257922 0.147344C0.185266 0.204656 0.124609 0.274656 0.0806094 0.358C0.0712656 0.376 0.0692656 0.395344 0.0619531 0.414C0.0406094 0.464656 0.0172969 0.514 0.00929687 0.57C0.00595312 0.59 0.0119531 0.608656 0.0112969 0.628C0.0106406 0.641344 0.00195312 0.653344 0.00195312 0.666656V14C0.00195312 14.318 0.226609 14.5913 0.537953 14.6533L7.20461 15.9867C7.24795 15.996 7.29195 16 7.33527 16C7.48792 16 7.63792 15.9474 7.75792 15.8487C7.91192 15.722 8.00192 15.5333 8.00192 15.3333V14.6667H11.3353C11.7039 14.6667 12.0019 14.368 12.0019 14V10C12.0019 9.632 11.7039 9.33334 11.3353 9.33334Z" fill="#333333"/>
</svg>
