<?xml version="1.0" encoding="utf-8"?>
<!-- Generator: Adobe Illustrator 23.0.5, SVG Export Plug-In . SVG Version: 6.00 Build 0)  -->
<svg version="1.1" id="Layer_1" xmlns="http://www.w3.org/2000/svg" xmlns:xlink="http://www.w3.org/1999/xlink" x="0px" y="0px"
	 width="40px" height="39.1px" viewBox="0 0 40 39.1" style="enable-background:new 0 0 40 39.1;" xml:space="preserve">
<style type="text/css">
	.st0{fill-rule:evenodd;clip-rule:evenodd;fill:#FFFFFF;}
</style>
<path class="st0" d="M29,11.1L29,11.1c1.9,2.1,3.1,5,3.1,8.1c0,5.4-3.6,10-8.5,11.5v-4.9c2.4-1.3,4-3.8,4-6.7c0-1.9-0.7-3.6-1.8-4.9
	L19.9,20l-5.7-5.7c-1.1,1.3-1.8,3-1.8,4.9c0,2.9,1.6,5.4,4,6.7v4.9c-4.9-1.5-8.5-6.1-8.5-11.5c0-3.1,1.2-6,3.1-8.1l0,0
	c0.9-1,2.1-2,3.4-2.7l5.5,5.5l5.5-5.5C26.6,9.1,28.1,10.1,29,11.1 M34.1,5.3c3.6,3.6,5.9,8.6,5.9,14.1c0,5.5-2.2,10.5-5.9,14.1
	c-0.6,0.6-1.3,1.2-2.1,1.8l0,0c-1.5,1.1-3.1,2-4.9,2.7c-1.2,0.4-2.4,0.8-3.6,1v-5.7c2.5-0.6,4.8-2,6.6-3.8c2.6-2.6,4.2-6.2,4.2-10.2
	c0-4-1.6-7.6-4.2-10.2c-1.3-1.3-3-2.4-4.7-3.2l-5.5,5.5l-5.5-5.5c-1.7,0.7-3.3,1.8-4.6,3.1c-2.6,2.6-4.2,6.2-4.2,10.2
	c0,4,1.6,7.6,4.2,10.2c1.8,1.8,4.1,3.1,6.6,3.8v5.7c-1.3-0.2-2.5-0.6-3.6-1c-1.8-0.7-3.4-1.6-4.9-2.7l0,0c-0.7-0.6-1.4-1.2-2.1-1.8
	C2.2,30,0,25,0,19.4C0,13.9,2.2,8.9,5.9,5.3C6.5,4.6,7.2,4,7.9,3.5l0,0C8.7,2.9,9.5,2.4,10.3,2c0.8-0.4,1.6-0.8,2.5-1.2
	c0.8-0.3,1.6-0.5,2.4-0.7l4.8,4.8L24.7,0c0.8,0.2,1.7,0.5,2.5,0.8c0.8,0.3,1.6,0.7,2.4,1.1c0.9,0.5,1.7,1,2.4,1.6l0,0
	C32.8,4,33.5,4.6,34.1,5.3z"/>
</svg>
