<svg width="21" height="12" viewBox="0 0 21 12" fill="none" xmlns="http://www.w3.org/2000/svg">
<path d="M10.5 0C6.48773 0 2.84919 2.10432 0.164314 5.52231C-0.0547714 5.80233 -0.0547714 6.19355 0.164314 6.47358C2.84919 9.89568 6.48773 12 10.5 12C14.5123 12 18.1508 9.89568 20.8357 6.47769C21.0548 6.19767 21.0548 5.80645 20.8357 5.52642C18.1508 2.10432 14.5123 0 10.5 0ZM10.7878 10.2251C8.12442 10.3857 5.92498 8.2814 6.09251 5.72409C6.22998 3.61565 8.01273 1.90666 10.2122 1.77488C12.8756 1.61428 15.075 3.7186 14.9075 6.27591C14.7657 8.38023 12.983 10.0892 10.7878 10.2251ZM10.6546 8.27316C9.21985 8.35964 8.03421 7.22718 8.12872 5.85175C8.20175 4.71517 9.16401 3.79684 10.3496 3.72272C11.7844 3.63624 12.9701 4.7687 12.8756 6.14413C12.7983 7.28483 11.836 8.20316 10.6546 8.27316Z" fill="#CFCFCF"/>
</svg>
