<svg width="16" height="16" viewBox="0 0 16 16" fill="none" xmlns="http://www.w3.org/2000/svg">
<path d="M7.25507 8.00787L0.152753 15.119C-0.0349738 15.3078 -0.0349738 15.6539 0.152753 15.8427C0.246616 15.9371 0.371767 16 0.496918 16C0.622069 16 0.74722 15.9371 0.841083 15.8427L7.97469 8.66863L15.1083 15.8427C15.2022 15.9371 15.3273 16 15.4525 16C15.5776 16 15.7028 15.9371 15.7966 15.8427C15.9844 15.6539 15.9844 15.3392 15.7966 15.119L8.78817 8.00787L15.8592 0.86529C16.0469 0.676499 16.0469 0.361849 15.8592 0.141593C15.6715 -0.0471976 15.3586 -0.0471976 15.1396 0.141593L8.00598 7.3471L0.872371 0.141593C0.684645 -0.0471976 0.371767 -0.0471976 0.152753 0.141593C-0.0662615 0.330383 -0.0349738 0.645034 0.152753 0.86529L7.25507 8.00787Z" fill="white"/>
</svg>
