<svg width="46" height="33" viewBox="0 0 46 33" fill="none" xmlns="http://www.w3.org/2000/svg">
<path d="M41.1133 2.09961C37.7604 4.57357 35.2214 7.0638 33.4961 9.57031C31.7708 12.0768 30.9082 14.5182 30.9082 16.8945C30.9082 18.4896 31.0221 19.6289 31.25 20.3125C31.5104 20.9635 31.9336 21.2891 32.5195 21.2891C32.5195 21.2891 33.138 20.4915 34.375 18.8965C35.6445 17.3014 37.2233 16.5039 39.1113 16.5039C41.2272 16.5039 42.8711 17.1387 44.043 18.4082C45.2148 19.6452 45.8008 21.4193 45.8008 23.7305C45.8008 26.3021 44.987 28.418 43.3594 30.0781C41.7643 31.7057 39.681 32.5195 37.1094 32.5195C33.8867 32.5195 31.2174 31.3639 29.1016 29.0527C27.0182 26.709 25.9766 23.7305 25.9766 20.1172C25.9766 16.3411 27.0833 12.793 29.2969 9.47266C31.543 6.15234 34.9121 2.99479 39.4043 0L41.1133 2.09961ZM15.0879 2.09961C11.735 4.57357 9.19596 7.0638 7.4707 9.57031C5.74544 12.0768 4.88281 14.5182 4.88281 16.8945C4.88281 18.5547 4.99674 19.7103 5.22461 20.3613C5.45247 20.9798 5.8431 21.2891 6.39648 21.2891C6.42904 21.2891 7.08008 20.4915 8.34961 18.8965C9.65169 17.3014 11.2305 16.5039 13.0859 16.5039C15.2018 16.5039 16.8457 17.1387 18.0176 18.4082C19.1895 19.6452 19.7754 21.4193 19.7754 23.7305C19.7754 26.3021 18.9616 28.418 17.334 30.0781C15.7389 31.7057 13.6556 32.5195 11.084 32.5195C7.86133 32.5195 5.20833 31.3639 3.125 29.0527C1.04167 26.709 0 23.7305 0 20.1172C0 16.3411 1.10677 12.793 3.32031 9.47266C5.53385 6.15234 8.88672 2.99479 13.3789 0L15.0879 2.09961Z" fill="#197ED7"/>
</svg>
