<svg width="17" height="18" viewBox="0 0 17 18" fill="none" xmlns="http://www.w3.org/2000/svg">
<path d="M9.91781 0.000145978C6.53539 -0.0233804 3.76588 2.79978 3.74318 6.3052C3.72048 9.81063 6.44458 12.6808 9.827 12.7044C13.2094 12.7279 15.9789 9.90474 16.0016 6.39931C16.0243 2.89389 13.3002 0.0236723 9.91781 0.000145978ZM9.8497 10.8223C7.46612 10.7987 5.55925 8.799 5.55925 6.32873C5.58195 3.85847 7.51152 1.88225 9.89511 1.88225C12.2787 1.90578 14.1856 3.90552 14.1856 6.37579C14.1629 8.84605 12.2333 10.8458 9.8497 10.8223Z" fill="#1D89E4"/>
<path d="M2.13147 16.8215L6.10412 12.6808C6.35383 12.422 6.33112 11.9515 6.08142 11.528L6.44463 11.1516L5.6274 10.3282L5.26419 10.7046C4.85558 10.4458 4.40155 10.4458 4.15184 10.7046L0.179195 14.8452C-0.138616 15.1746 -0.0251094 15.8569 0.451608 16.3509L0.655915 16.5627C1.15533 17.0332 1.79096 17.1508 2.13147 16.8215Z" fill="#1D89E4"/>
</svg>
