<svg width="22" height="21" viewBox="0 0 22 21" fill="none" xmlns="http://www.w3.org/2000/svg">
<path fill-rule="evenodd" clip-rule="evenodd" d="M0.0115901 9.43652C-0.238435 4.48543 3.58696 0.259496 8.56246 0.00944073C13.513 -0.215609 17.7384 3.61024 17.9884 8.56133C18.0757 10.2903 17.6661 11.9308 16.884 13.3445C16.8886 13.3488 16.8932 13.3531 16.8979 13.3575L21.5644 17.7726C22.1037 18.2877 22.1506 19.1708 21.6582 19.7349L20.9781 20.5443C20.4857 21.1085 19.6415 21.1576 19.1021 20.6425L14.4356 16.2274C14.4246 16.2169 14.4138 16.2062 14.4032 16.1954C13.0138 17.2393 11.3068 17.8945 9.43755 17.9884C4.48705 18.2385 0.261615 14.4126 0.0115901 9.43652ZM2.76187 9.33649C2.93689 12.7622 5.86219 15.4378 9.31254 15.2628C12.7629 15.0878 15.4131 12.1371 15.2381 8.71136C15.0631 5.2856 12.1378 2.61002 8.68747 2.78505C5.26213 2.96009 2.58685 5.88573 2.76187 9.33649Z" fill="#1D89E4"/>
</svg>
