<svg width="15" height="15" viewBox="0 0 15 15" fill="none" xmlns="http://www.w3.org/2000/svg">
<path d="M9.15215 7.49958L14.7605 1.89099C14.9148 1.7366 14.9999 1.53062 15.0001 1.31099C15.0001 1.09123 14.915 0.885008 14.7605 0.73086L14.269 0.239514C14.1145 0.0847568 13.9085 0 13.6887 0C13.4691 0 13.2632 0.0847568 13.1086 0.239514L7.50031 5.84773L1.89172 0.239514C1.73745 0.0847568 1.53135 0 1.3116 0C1.09208 0 0.885983 0.0847568 0.731714 0.239514L0.240002 0.73086C-0.0800007 1.05086 -0.0800007 1.57136 0.240002 1.89099L5.84847 7.49958L0.240002 13.1079C0.0856105 13.2626 0.000609761 13.4685 0.000609761 13.6882C0.000609761 13.9078 0.0856105 14.1138 0.240002 14.2683L0.731592 14.7596C0.885861 14.9143 1.09208 14.9992 1.31147 14.9992C1.53123 14.9992 1.73733 14.9143 1.8916 14.7596L7.50019 9.1513L13.1085 14.7596C13.263 14.9143 13.469 14.9992 13.6885 14.9992H13.6888C13.9084 14.9992 14.1144 14.9143 14.2689 14.7596L14.7604 14.2683C14.9146 14.1139 14.9998 13.9078 14.9998 13.6882C14.9998 13.4685 14.9146 13.2626 14.7604 13.108L9.15215 7.49958Z" fill="white"/>
</svg>
