<svg xmlns="http://www.w3.org/2000/svg" width="60" height="60" viewBox="0 0 60 60" fill="none">
<circle cx="30" cy="30" r="29.5" fill="white" stroke="#E1E1E3"/>
<path d="M27.3936 21.4348L24.9936 23.8696H20.4V38.4783H39.6V23.8696H35.0064L32.6064 21.4348H27.3936ZM26.4 19H33.6L36 21.4348H40.8C41.1183 21.4348 41.4235 21.563 41.6485 21.7913C41.8736 22.0197 42 22.3293 42 22.6522V39.6957C42 40.0185 41.8736 40.3282 41.6485 40.5565C41.4235 40.7848 41.1183 40.913 40.8 40.913H19.2C18.8817 40.913 18.5765 40.7848 18.3515 40.5565C18.1264 40.3282 18 40.0185 18 39.6957V22.6522C18 22.3293 18.1264 22.0197 18.3515 21.7913C18.5765 21.563 18.8817 21.4348 19.2 21.4348H24L26.4 19ZM30 37.2609C28.2496 37.2609 26.5708 36.5554 25.3331 35.2998C24.0954 34.0441 23.4 32.341 23.4 30.5652C23.4 28.7894 24.0954 27.0864 25.3331 25.8307C26.5708 24.575 28.2496 23.8696 30 23.8696C31.7504 23.8696 33.4292 24.575 34.6669 25.8307C35.9046 27.0864 36.6 28.7894 36.6 30.5652C36.6 32.341 35.9046 34.0441 34.6669 35.2998C33.4292 36.5554 31.7504 37.2609 30 37.2609ZM30 34.8261C31.1139 34.8261 32.1822 34.3772 32.9698 33.5781C33.7575 32.779 34.2 31.6953 34.2 30.5652C34.2 29.4352 33.7575 28.3514 32.9698 27.5523C32.1822 26.7533 31.1139 26.3043 30 26.3043C28.8861 26.3043 27.8178 26.7533 27.0302 27.5523C26.2425 28.3514 25.8 29.4352 25.8 30.5652C25.8 31.6953 26.2425 32.779 27.0302 33.5781C27.8178 34.3772 28.8861 34.8261 30 34.8261Z" fill="#EBEFF2"/>
</svg>