<?xml version="1.0" encoding="utf-8"?>
<!-- Generator: Adobe Illustrator 23.0.0, SVG Export Plug-In . SVG Version: 6.00 Build 0)  -->
<svg version="1.1" id="Layer_1" xmlns="http://www.w3.org/2000/svg" xmlns:xlink="http://www.w3.org/1999/xlink" x="0px" y="0px"
	 width="20px" height="21px" viewBox="0 0 20 21" style="enable-background:new 0 0 20 21;" xml:space="preserve">
<style type="text/css">
	.st0{fill:#FFFFFF;}
</style>
<path class="st0" d="M17.9,19.5c0-4.4-3.5-8-7.9-8s-7.9,3.6-7.9,8h1.2c0-3.8,3-6.8,6.7-6.8s6.7,3,6.7,6.8H17.9z M10,10.2
	c2.3,0,4.2-1.9,4.2-4.3S12.3,1.6,10,1.6c-2.4,0-4.3,1.9-4.3,4.3S7.6,10.2,10,10.2z M10,8.9c-1.7,0-3-1.4-3-3.1s1.4-3.1,3-3.1
	c1.7,0,3,1.4,3,3.1S11.7,8.9,10,8.9z"/>
</svg>
