<svg width="20" height="21" viewBox="0 0 20 21" fill="none" xmlns="http://www.w3.org/2000/svg">
<path d="M15.8 21C15.8 16.6 12.3 13 7.9 13C3.5 13 0 16.6 0 21H1.2C1.2 17.2 4.2 14.2 7.9 14.2C11.6 14.2 14.6 17.2 14.6 21H15.8ZM7.9 11.7C10.2 11.7 12.1 9.8 12.1 7.4C12.1 5 10.2 3.1 7.9 3.1C5.5 3.1 3.6 5 3.6 7.4C3.6 9.8 5.5 11.7 7.9 11.7ZM7.9 10.5C6.2 10.5 4.9 9.1 4.9 7.4C4.9 5.7 6.3 4.3 7.9 4.3C9.6 4.3 10.9 5.7 10.9 7.4C10.9 9.1 9.6 10.5 7.9 10.5ZM17.6 2.5V0H16.4V2.5H14V3.7H16.4V6.2H17.6V3.7H20V2.5H17.6Z" fill="white"/>
</svg>
